<svg width="56" height="56" viewBox="0 0 56 56" fill="none" xmlns="http://www.w3.org/2000/svg">
<path d="M42 12L39.5402 39.8968L28.4835 43L17.4572 39.9011L15 12H42Z" fill="#264DE4"/>
<path d="M37.0954 37.5254L39 14H29V40L37.0954 37.5254Z" fill="#2965F1"/>
<path d="M21 25L21.3081 28H29V25H21Z" fill="#EBEBEB"/>
<path d="M29 18H28.9876H20L20.3263 21H29V18Z" fill="#EBEBEB"/>
<path d="M29 36.9952V33.1036L28.984 33.108L24.9215 31.9832L24.6618 29H22.6877H21L21.5111 34.873L28.9832 37L29 36.9952Z" fill="#EBEBEB"/>
<path d="M32.9326 28.1471L32.5619 32.4989L29 33.509V37L35.547 35.0935L35.5951 34.5266L36.3455 25.6927L36.4235 24.7916L37 18H29V21.3555H33.5001L33.2095 24.7916H29V28.1471H32.9326Z" fill="white"/>
</svg>
