<svg width="56" height="56" viewBox="0 0 56 56" fill="none" xmlns="http://www.w3.org/2000/svg">
<path d="M22.8148 43.5556C25.677 43.5556 28 41.2326 28 38.3704V33.1852H22.8148C19.9526 33.1852 17.6296 35.5082 17.6296 38.3704C17.6296 41.2326 19.9526 43.5556 22.8148 43.5556Z" fill="#0ACF83"/>
<path d="M17.6296 28C17.6296 25.1377 19.9526 22.8148 22.8148 22.8148H28V33.1851H22.8148C19.9526 33.1851 17.6296 30.8622 17.6296 28Z" fill="#A259FF"/>
<path d="M17.6296 17.6296C17.6296 14.7674 19.9526 12.4445 22.8148 12.4445H28V22.8148H22.8148C19.9526 22.8148 17.6296 20.4919 17.6296 17.6296Z" fill="#F24E1E"/>
<path d="M28 12.4445H33.1852C36.0474 12.4445 38.3704 14.7674 38.3704 17.6296C38.3704 20.4919 36.0474 22.8148 33.1852 22.8148H28V12.4445Z" fill="#FF7262"/>
<path d="M38.3704 28C38.3704 30.8622 36.0474 33.1851 33.1852 33.1851C30.323 33.1851 28 30.8622 28 28C28 25.1377 30.323 22.8148 33.1852 22.8148C36.0474 22.8148 38.3704 25.1377 38.3704 28Z" fill="#1ABCFE"/>
</svg>
