<svg width="56" height="56" viewBox="0 0 56 56" fill="none" xmlns="http://www.w3.org/2000/svg">
<g clip-path="url(#clip0_1_5576)">
<path d="M33.2009 21.0118H34.3806L37.7414 17.651L37.9067 16.225C31.6533 10.7057 22.1072 11.3004 16.588 17.5538C15.0534 19.2909 13.9401 21.357 13.3341 23.5932C13.7084 23.4393 14.1232 23.415 14.5138 23.5219L21.2338 22.4135C21.2338 22.4135 21.5757 21.848 21.7523 21.8836C24.7421 18.6006 29.7736 18.2182 33.2252 21.0118H33.2009Z" fill="#EA4335"/>
<path d="M42.5282 23.5932C41.7552 20.7493 40.1704 18.1922 37.965 16.2363L33.2495 20.9519C35.241 22.5788 36.3753 25.0305 36.3267 27.6022V28.44C38.6456 28.44 40.5237 30.3197 40.5237 32.637C40.5237 34.9558 38.6439 36.8339 36.3267 36.8339H27.9311L27.0934 37.6831V42.7178L27.9311 43.5556H36.3267C41.1394 43.5929 45.4093 40.4735 46.8386 35.8779C48.2646 31.2806 46.5145 26.2896 42.5282 23.5932Z" fill="#4285F4"/>
<path d="M19.5242 43.5086H27.9198V36.7885H19.5242C18.9263 36.7885 18.3348 36.6605 17.7903 36.411L16.6107 36.7756L13.2271 40.1364L12.9322 41.3161C14.8298 42.7486 17.1454 43.5183 19.5242 43.5086Z" fill="#34A853"/>
<path d="M19.5242 21.707C14.8606 21.7345 10.73 24.721 9.24243 29.14C7.75486 33.559 9.23757 38.4366 12.9338 41.2788L17.8033 36.4094C15.6902 35.4549 14.752 32.9691 15.7064 30.8561C16.6609 28.743 19.1467 27.8048 21.2597 28.7592C22.1899 29.1805 22.9353 29.9259 23.3566 30.8561L28.2261 25.9866C26.1535 23.2788 22.9337 21.6957 19.5242 21.707Z" fill="#FBBC05"/>
</g>
<defs>
<clipPath id="clip0_1_5576">
<rect width="38.6592" height="31.1111" fill="white" transform="translate(8.67041 12.4445)"/>
</clipPath>
</defs>
</svg>
