<svg width="57" height="56" viewBox="0 0 57 56" fill="none" xmlns="http://www.w3.org/2000/svg">
<path d="M43.8346 26.6139L30.1753 13.0312C29.3892 12.2489 28.1133 12.2489 27.3262 13.0312L24.4898 15.8518L28.0879 19.43C28.924 19.149 29.8829 19.3375 30.5494 20.0003C31.2191 20.6674 31.4073 21.629 31.1179 22.4632L34.5855 25.9117C35.4245 25.6243 36.3925 25.8102 37.0625 26.4776C37.999 27.4085 37.999 28.9173 37.0625 29.8488C36.1258 30.7804 34.6086 30.7804 33.6714 29.8488C32.967 29.1476 32.793 28.1189 33.1496 27.2559L29.9158 24.04L29.9154 32.5028C30.1498 32.6181 30.3639 32.7704 30.5494 32.9537C31.4859 33.8846 31.4859 35.3935 30.5494 36.3257C29.6127 37.2569 28.0948 37.2569 27.1594 36.3257C26.2229 35.3935 26.2229 33.8847 27.1594 32.9538C27.3838 32.7306 27.6505 32.5537 27.9441 32.4336V23.8919C27.6501 23.7725 27.3832 23.5956 27.1594 23.3716C26.4499 22.667 26.2793 21.6317 26.6428 20.7653L23.0959 17.2377L13.73 26.551C12.943 27.334 12.943 28.6029 13.73 29.3853L27.3895 42.9682C28.1759 43.7506 29.4515 43.7506 30.2389 42.9682L43.8345 29.4484C44.6213 28.6657 44.6213 27.3961 43.8345 26.6139" fill="#DE4C36"/>
</svg>
