<svg width="57" height="56" viewBox="0 0 57 56" fill="none" xmlns="http://www.w3.org/2000/svg">
<path d="M28.4694 12.8284C19.8313 12.8284 12.8268 19.7928 12.8268 28.384C12.8268 35.257 17.3089 41.0879 23.5242 43.1448C24.3059 43.2888 24.593 42.8074 24.593 42.3965C24.593 42.0256 24.5784 40.8001 24.5718 39.5003C20.2199 40.4413 19.3016 37.665 19.3016 37.665C18.5901 35.8669 17.5648 35.3889 17.5648 35.3889C16.1456 34.4234 17.6718 34.4432 17.6718 34.4432C19.2426 34.553 20.0697 36.0463 20.0697 36.0463C21.4649 38.4244 23.7291 37.7368 24.6217 37.3395C24.762 36.3339 25.1675 35.6478 25.6148 35.2594C22.1405 34.8659 18.488 33.5321 18.488 27.5716C18.488 25.8734 19.0991 24.4857 20.0998 23.3963C19.9373 23.0045 19.402 21.4224 20.2513 19.2797C20.2513 19.2797 21.5648 18.8616 24.5541 20.8742C25.8018 20.5294 27.14 20.3567 28.4694 20.3508C29.7987 20.3567 31.1379 20.5294 32.3881 20.8742C35.3738 18.8616 36.6855 19.2797 36.6855 19.2797C37.5369 21.4224 37.0013 23.0045 36.8388 23.3963C37.8417 24.4857 38.4487 25.8733 38.4487 27.5716C38.4487 33.5462 34.7893 34.8619 31.3061 35.2469C31.8672 35.7297 32.3671 36.6764 32.3671 38.1276C32.3671 40.2089 32.3489 41.8841 32.3489 42.3965C32.3489 42.8104 32.6305 43.2955 33.4235 43.1428C39.6354 41.0835 44.1118 35.2547 44.1118 28.384C44.1118 19.7928 37.1082 12.8284 28.4694 12.8284Z" fill="#161614"/>
<path d="M18.6854 34.9878C18.6511 35.065 18.5287 35.0882 18.4174 35.0352C18.3039 34.9845 18.2401 34.8791 18.2769 34.8015C18.3107 34.7219 18.4331 34.6997 18.5463 34.7532C18.66 34.8038 18.7248 34.9102 18.6854 34.9878ZM19.4549 35.6705C19.3803 35.7393 19.2344 35.7073 19.1354 35.5986C19.0331 35.4902 19.014 35.3452 19.0897 35.2753C19.1666 35.2067 19.3081 35.2387 19.4106 35.3473C19.5129 35.457 19.5328 35.6011 19.4548 35.6706L19.4549 35.6705ZM19.9828 36.544C19.8869 36.6103 19.7301 36.5482 19.6333 36.4098C19.5375 36.2716 19.5375 36.1057 19.6354 36.0392C19.7325 35.9727 19.8869 36.0325 19.985 36.1697C20.0807 36.3104 20.0807 36.4763 19.9827 36.5441L19.9828 36.544ZM20.8754 37.5558C20.7897 37.6497 20.6071 37.6246 20.4734 37.4962C20.3367 37.3708 20.2986 37.1928 20.3846 37.0988C20.4713 37.0046 20.655 37.031 20.7897 37.1583C20.9255 37.2835 20.967 37.4628 20.8756 37.5558H20.8754ZM22.0291 37.8974C21.9915 38.0191 21.8155 38.0745 21.6384 38.0228C21.4615 37.9695 21.3457 37.8267 21.3814 37.7036C21.4182 37.581 21.5948 37.5233 21.7733 37.5787C21.95 37.6318 22.0661 37.7734 22.0293 37.8974H22.0291ZM23.3423 38.0422C23.3467 38.1705 23.1965 38.2769 23.0105 38.2792C22.8234 38.2833 22.6721 38.1794 22.6702 38.0533C22.6702 37.9237 22.817 37.8183 23.004 37.8153C23.19 37.8116 23.3423 37.9147 23.3423 38.0422ZM24.6322 37.993C24.6545 38.1182 24.5252 38.2468 24.3406 38.2809C24.159 38.3139 23.9909 38.2367 23.9678 38.1126C23.9452 37.9842 24.0769 37.8558 24.2581 37.8225C24.4431 37.7905 24.6086 37.8658 24.6322 37.993Z" fill="#161614"/>
</svg>
