<svg width="57" height="56" viewBox="0 0 57 56" fill="none" xmlns="http://www.w3.org/2000/svg">
<path d="M41.8336 36.4763C40.1314 36.4335 38.8122 36.6053 37.7057 37.0778C37.3865 37.2065 36.8758 37.2067 36.8332 37.6148C37.0035 37.7867 37.0248 38.0659 37.1737 38.3021C37.4293 38.7316 37.8758 39.3116 38.2802 39.6124C38.7269 39.956 39.1739 40.2996 39.6418 40.6003C40.4718 41.1158 41.4081 41.4164 42.2166 41.932C42.6849 42.2325 43.1527 42.6194 43.6209 42.9415C43.8549 43.1131 44.0038 43.3926 44.3018 43.4998V43.4355C44.1527 43.2421 44.1102 42.9629 43.9613 42.7481C43.7488 42.5333 43.5357 42.34 43.3229 42.1252C42.7059 41.2877 41.94 40.5573 41.1102 39.956C40.4293 39.4834 38.9397 38.8391 38.6632 38.0443C38.6632 38.0443 38.6418 38.0229 38.6206 38.0015C39.0887 37.9585 39.6418 37.7867 40.0888 37.6578C40.8123 37.4643 41.4718 37.5074 42.2166 37.3141C42.557 37.2282 42.8975 37.1207 43.2378 37.0133V36.8201C42.855 36.4335 42.5784 35.9181 42.1741 35.5529C41.0889 34.6076 39.8972 33.6842 38.6632 32.911C38.0035 32.4814 37.1523 32.2021 36.4502 31.8371C36.1951 31.708 35.7693 31.6437 35.6205 31.4289C35.2373 30.9565 35.0245 30.3336 34.748 29.7751C34.1311 28.5937 33.5352 27.2836 33.0032 26.0379C32.6204 25.2002 32.3863 24.3624 31.9181 23.5894C29.7265 19.938 27.3434 17.7257 23.6837 15.5562C22.8963 15.1052 21.9601 14.9119 20.9601 14.6758C20.4283 14.6541 19.8962 14.6113 19.3643 14.5897C19.0238 14.4393 18.6834 14.0313 18.3854 13.838C17.1728 13.0647 14.0448 11.3895 13.1511 13.6018C12.5766 14.9978 14.0024 16.3724 14.4915 17.0814C14.8536 17.5753 15.3215 18.1337 15.5768 18.6922C15.7258 19.0571 15.7682 19.444 15.9172 19.8306C16.2578 20.7754 16.5768 21.828 17.0238 22.7088C17.2578 23.1597 17.5131 23.6322 17.811 24.0403C17.9812 24.2765 18.279 24.384 18.343 24.7706C18.0452 25.2002 18.0238 25.8446 17.8534 26.3815C17.0875 28.8086 17.3855 31.8156 18.4706 33.5982C18.8109 34.135 19.6196 35.3167 20.7047 34.8655C21.6623 34.479 21.4495 33.2547 21.7259 32.1807C21.79 31.9227 21.7475 31.7511 21.875 31.5793V31.6224C22.1729 32.2236 22.4707 32.8037 22.7474 33.405C23.4071 34.4574 24.5559 35.5529 25.5134 36.2832C26.0243 36.6696 26.4285 37.3356 27.0669 37.5718V37.5073H27.0242C26.8965 37.314 26.705 37.2282 26.5349 37.0777C26.152 36.6913 25.7262 36.2187 25.4284 35.7891C24.5349 34.5861 23.7474 33.2545 23.0453 31.8799C22.7049 31.2142 22.4069 30.4839 22.1304 29.8181C22.0026 29.5601 22.0026 29.1737 21.7899 29.0449C21.4707 29.5174 21.0027 29.9255 20.7686 30.5054C20.3645 31.4289 20.3218 32.5673 20.1729 33.7485C20.0877 33.7702 20.1302 33.7485 20.0876 33.7917C19.4069 33.6196 19.1728 32.911 18.9173 32.3095C18.2789 30.7846 18.1725 28.336 18.7259 26.5748C18.8749 26.1237 19.5133 24.7062 19.2579 24.2766C19.1303 23.8685 18.7045 23.6322 18.4706 23.3101C18.194 22.902 17.896 22.3867 17.7046 21.9354C17.1939 20.7326 16.9385 19.4009 16.3854 18.1981C16.13 17.6396 15.6834 17.0599 15.3215 16.5443C14.9173 15.9645 14.4704 15.5562 14.1512 14.869C14.0449 14.6328 13.8958 14.2461 14.0661 13.9884C14.1086 13.8165 14.1936 13.7522 14.364 13.7092C14.6406 13.4728 15.428 13.7736 15.7044 13.9024C16.4918 14.2244 17.1513 14.5254 17.811 14.9764C18.1088 15.1912 18.428 15.5993 18.8109 15.7067H19.2578C19.9388 15.857 20.7046 15.7497 21.343 15.9429C22.4709 16.3079 23.4921 16.845 24.4071 17.4249C27.1946 19.2076 29.4923 21.7421 31.0458 24.7706C31.3011 25.2644 31.4074 25.7157 31.6415 26.231C32.0885 27.2836 32.6417 28.3575 33.0883 29.3885C33.5352 30.3978 33.9607 31.4289 34.5991 32.2667C34.9183 32.7175 36.1948 32.9539 36.7694 33.1902C37.195 33.3834 37.8547 33.5554 38.2376 33.7916C38.961 34.2424 39.6844 34.7582 40.3654 35.252C40.7058 35.5098 41.7696 36.0468 41.8336 36.4763Z" fill="#00546B"/>
<path d="M20.1301 17.8114C19.7684 17.8114 19.5132 17.8546 19.2578 17.9189V17.9618H19.3004C19.4707 18.3055 19.7684 18.5418 19.9811 18.8424C20.1515 19.186 20.3003 19.5298 20.4707 19.8735C20.4918 19.8519 20.5131 19.8306 20.5131 19.8306C20.8111 19.6156 20.96 19.2721 20.96 18.7565C20.8323 18.6063 20.811 18.4559 20.7046 18.3055C20.5771 18.0906 20.3003 17.9833 20.1301 17.8114Z" fill="#00546B"/>
</svg>
