<svg width="56" height="56" viewBox="0 0 56 56" fill="none" xmlns="http://www.w3.org/2000/svg">
<path d="M26.7262 12.7764C27.4976 12.3348 28.5024 12.3328 29.2732 12.7764C33.1507 14.9674 37.0295 17.155 40.9064 19.3473C41.6356 19.7581 42.1234 20.5696 42.1159 21.4098V34.5919C42.1214 35.4669 41.5854 36.2978 40.8161 36.6992C36.9513 38.8782 33.0884 41.0598 29.2243 43.2387C28.4369 43.6889 27.412 43.6543 26.6492 43.1672C25.4906 42.4955 24.3299 41.8271 23.1711 41.1561C22.9343 41.0149 22.6674 40.9026 22.5002 40.673C22.648 40.4738 22.9123 40.4489 23.127 40.362C23.6107 40.2082 24.0549 39.9613 24.4992 39.7217C24.6116 39.6448 24.7487 39.6743 24.8564 39.7431C25.8472 40.3112 26.8293 40.8958 27.8234 41.4585C28.0355 41.5809 28.2502 41.4184 28.4315 41.3173C32.2241 39.1738 36.0213 37.0384 39.8132 34.8943C39.9537 34.8267 40.0314 34.6775 40.02 34.5236C40.0226 30.1751 40.0206 25.8259 40.0213 21.4774C40.0374 21.3028 39.9363 21.1422 39.7784 21.0708C35.927 18.9018 32.0776 16.7295 28.2268 14.56C28.1601 14.5141 28.0811 14.4895 28.0001 14.4894C27.9192 14.4893 27.8401 14.5136 27.7732 14.5593C23.9225 16.7295 20.0737 18.9038 16.223 21.0727C16.0656 21.1442 15.96 21.3021 15.9788 21.4774C15.9794 25.8259 15.9788 30.1751 15.9788 34.5243C15.9721 34.5994 15.9886 34.6747 16.026 34.7402C16.0635 34.8056 16.12 34.858 16.1882 34.8903C17.2158 35.473 18.2447 36.0516 19.2729 36.6323C19.8522 36.9441 20.5635 37.1294 21.2017 36.8905C21.7649 36.6885 22.1597 36.1138 22.1489 35.5158C22.1543 31.1927 22.1463 26.8689 22.1529 22.5465C22.1389 22.3545 22.3209 22.196 22.5075 22.214C23.0012 22.2107 23.4957 22.2074 23.9894 22.2154C24.1955 22.2107 24.3373 22.4174 24.3118 22.6107C24.3098 26.9612 24.3171 31.3118 24.3085 35.6622C24.3098 36.8217 23.8335 38.0833 22.761 38.6506C21.4398 39.335 19.8068 39.1899 18.5015 38.5336C17.3716 37.9696 16.2932 37.304 15.1833 36.6998C14.412 36.3006 13.8787 35.4663 13.8841 34.592V21.4098C13.876 20.5522 14.3832 19.726 15.1351 19.3212C18.9993 17.1405 22.8627 14.9581 26.7262 12.7764Z" fill="#8CC84B"/>
<path d="M30.0973 21.9077C31.7826 21.7992 33.5869 21.8434 35.1034 22.6736C36.2776 23.3099 36.9286 24.6452 36.9493 25.9496C36.9165 26.1256 36.7326 26.2227 36.5646 26.2106C36.0756 26.2099 35.5865 26.2172 35.0975 26.2073C34.8901 26.2152 34.7696 26.024 34.7435 25.8406C34.603 25.2165 34.2626 24.5983 33.6752 24.2972C32.7733 23.8457 31.7277 23.8684 30.7443 23.8778C30.0264 23.916 29.2544 23.9781 28.6462 24.4003C28.1793 24.7201 28.0375 25.3656 28.2041 25.8855C28.3613 26.2588 28.7922 26.3792 29.1447 26.4903C31.1758 27.0214 33.328 26.9686 35.3203 27.6677C36.1451 27.9526 36.952 28.5067 37.2343 29.3703C37.6036 30.5277 37.4417 31.9112 36.6182 32.8404C35.9504 33.605 34.9778 34.0212 34.0077 34.2473C32.7172 34.535 31.3779 34.5423 30.0673 34.4146C28.8349 34.2741 27.5525 33.9503 26.6011 33.1106C25.7876 32.4043 25.3903 31.3037 25.4297 30.2414C25.4392 30.062 25.6178 29.9369 25.7896 29.9516C26.282 29.9477 26.7744 29.9463 27.2669 29.9523C27.4635 29.9382 27.6093 30.1082 27.6194 30.2936C27.7103 30.8883 27.9338 31.5124 28.4523 31.865C29.4531 32.5106 30.7088 32.4664 31.8548 32.4845C32.8041 32.4424 33.8698 32.4296 34.6446 31.8022C35.0533 31.4443 35.1744 30.8455 35.064 30.3304C34.9443 29.8955 34.4893 29.6928 34.0987 29.5603C32.0937 28.926 29.9174 29.1562 27.9318 28.439C27.1257 28.1541 26.3462 27.6155 26.0365 26.7873C25.6044 25.6152 25.8024 24.1655 26.7122 23.2677C27.5993 22.3746 28.8798 22.0306 30.0973 21.9075V21.9077Z" fill="#8CC84B"/>
</svg>
