<svg width="57" height="56" viewBox="0 0 57 56" fill="none" xmlns="http://www.w3.org/2000/svg">
<path fill-rule="evenodd" clip-rule="evenodd" d="M28.4079 35.8831C37.047 35.8831 44.0504 32.3536 44.0504 28C44.0504 23.6464 37.047 20.1169 28.4079 20.1169C19.769 20.1169 12.7654 23.6464 12.7654 28C12.7654 32.3536 19.769 35.8831 28.4079 35.8831Z" fill="#6E81B6"/>
<path fill-rule="evenodd" clip-rule="evenodd" d="M31.5781 30.5479L32.354 26.5768C32.5291 25.6805 32.3835 25.0119 31.9214 24.5895C31.4736 24.1807 30.7136 23.9819 29.598 23.9819H28.2543L28.6386 22.0144C28.6458 21.9777 28.6448 21.94 28.6356 21.9038C28.6264 21.8676 28.6093 21.834 28.5854 21.8051C28.5616 21.7763 28.5316 21.7531 28.4977 21.7372C28.4637 21.7213 28.4267 21.713 28.3892 21.713H26.5345C26.4127 21.713 26.3081 21.799 26.2848 21.9179L25.4607 26.1338C25.3858 25.6594 25.2012 25.2516 24.9057 24.9151C24.3617 24.2958 23.5013 23.9819 22.348 23.9819H18.7534C18.6316 23.9819 18.527 24.0679 18.5037 24.1866L16.836 32.7203C16.8214 32.7946 16.8409 32.871 16.8893 32.9293C16.9375 32.9878 17.0094 33.0215 17.0856 33.0215H18.9548C19.0767 33.0215 19.1813 32.9355 19.2045 32.8164L19.608 30.7524H20.9994C21.7295 30.7524 22.3431 30.6738 22.822 30.5188C23.3118 30.3604 23.7625 30.0918 24.1597 29.722C24.4807 29.4287 24.7459 29.1003 24.95 28.7461L24.6169 30.4511C24.6023 30.5254 24.6218 30.6021 24.6702 30.6601C24.7185 30.7185 24.7905 30.7522 24.8666 30.7522H26.7212C26.843 30.7522 26.9476 30.6663 26.9709 30.5476L27.8862 25.8633H29.1588C29.7011 25.8633 29.86 25.9707 29.9033 26.0168C29.9425 26.0589 30.0238 26.2073 29.9324 26.6751L29.1948 30.4509C29.1877 30.4875 29.1888 30.5252 29.1981 30.5613C29.2074 30.5974 29.2245 30.6311 29.2484 30.6598C29.2722 30.6886 29.3022 30.7118 29.3361 30.7277C29.3699 30.7437 29.4069 30.752 29.4444 30.752H31.3286C31.3875 30.7521 31.4447 30.7318 31.4902 30.6946C31.5357 30.6573 31.5668 30.6055 31.5781 30.5479ZM22.9796 27.2667C22.8631 27.862 22.6437 28.2866 22.327 28.5287C22.0055 28.7753 21.4912 28.9002 20.7983 28.9002H19.9698L20.5689 25.8345H21.64C22.4269 25.8345 22.7439 26.0017 22.8712 26.1419C23.0477 26.3364 23.0852 26.7255 22.9796 27.2667ZM39.3902 24.9151C38.8464 24.2958 37.986 23.9819 36.8327 23.9819H33.2381C33.1161 23.9819 33.0116 24.0679 32.9884 24.1866L31.3208 32.7203C31.3061 32.7946 31.3255 32.871 31.374 32.9293C31.4224 32.9876 31.4945 33.0215 31.5701 33.0215H33.4395C33.5615 33.0215 33.6659 32.9355 33.6892 32.8164L34.0926 30.7524H35.4842C36.2145 30.7524 36.8276 30.6738 37.3067 30.5188C37.7966 30.3604 38.2474 30.0918 38.6444 29.722C38.9758 29.4193 39.2484 29.0791 39.4549 28.7117C39.6615 28.3443 39.8096 27.9347 39.896 27.4937C40.1084 26.4063 39.9384 25.5388 39.3902 24.9151ZM37.5704 27.2667C37.4537 27.862 37.2343 28.2866 36.918 28.5287C36.5963 28.7753 36.082 28.9002 35.3893 28.9002H34.5606L35.1595 25.8345H36.2308C37.0177 25.8345 37.3347 26.0017 37.4622 26.1419C37.6383 26.3364 37.6759 26.7255 37.5704 27.2667Z" fill="white"/>
<path fill-rule="evenodd" clip-rule="evenodd" d="M21.5868 25.5815C22.2969 25.5815 22.7703 25.7119 23.007 25.9726C23.2434 26.2333 23.2998 26.681 23.1761 27.3151C23.0467 27.9755 22.7978 28.4469 22.4289 28.7294C22.0601 29.0119 21.4987 29.153 20.7451 29.153H19.6079L20.3059 25.5815H21.5868ZM17.0322 32.7685H18.9014L19.345 30.4998H20.9462C21.6526 30.4998 22.2339 30.4259 22.6901 30.2782C23.1464 30.1306 23.5612 29.8832 23.9344 29.5358C24.2476 29.2497 24.5011 28.9337 24.6952 28.5883C24.889 28.243 25.0267 27.8621 25.1083 27.4454C25.3061 26.4338 25.1569 25.6459 24.6609 25.0816C24.1652 24.5171 23.3762 24.2349 22.2948 24.2349H18.7002L17.0322 32.7685ZM26.4811 21.9661H28.3358L27.8924 24.2349H29.5448C30.584 24.2349 31.3015 24.4151 31.6961 24.7757C32.0906 25.1363 32.2088 25.7207 32.0511 26.5286L31.2752 30.4998H29.391L30.1287 26.7239C30.2125 26.2943 30.1819 26.0014 30.0361 25.8451C29.8902 25.689 29.5798 25.6107 29.1054 25.6107H27.6232L26.6678 30.4998H24.8132L26.4811 21.9661ZM36.1776 25.5815C36.8877 25.5815 37.361 25.7119 37.5978 25.9726C37.8342 26.2333 37.8904 26.681 37.7667 27.3151C37.6377 27.9755 37.3888 28.4469 37.0197 28.7294C36.6511 29.0119 36.0895 29.153 35.3363 29.153H34.1991L34.8969 25.5815H36.1776ZM31.6227 32.7685H33.4921L33.9354 30.4998H35.5366C36.2433 30.4998 36.8245 30.4259 37.2808 30.2782C37.737 30.1306 38.1518 29.8832 38.525 29.5358C38.8382 29.2497 39.0917 28.9337 39.2856 28.5883C39.4795 28.243 39.6174 27.8621 39.6991 27.4454C39.8967 26.4338 39.7475 25.6459 39.2517 25.0816C38.7556 24.5171 37.9668 24.2349 36.8854 24.2349H33.2908L31.6227 32.7685Z" fill="black"/>
</svg>
