<svg width="57" height="56" viewBox="0 0 57 56" fill="none" xmlns="http://www.w3.org/2000/svg">
<path d="M40.6654 18.4924C38.7743 16.0572 36.1996 14.2344 33.2667 13.2545C30.3339 12.2747 27.1747 12.1817 24.1887 12.9874C21.2027 13.7931 18.5241 15.4613 16.4915 17.781C14.459 20.1007 13.1639 22.9678 12.7699 26.0195C12.376 29.0712 12.901 32.1706 14.2785 34.9256C15.656 37.6806 17.8241 39.9675 20.5086 41.497C23.1932 43.0266 26.2736 43.7301 29.3602 43.5186C32.4468 43.3071 35.4011 42.1901 37.8493 40.3089C44.683 35.057 45.9442 25.2906 40.6649 18.4924H40.6654Z" fill="#FF6C37"/>
<path d="M33.5608 22.356L26.9651 28.967L25.1013 27.0615C31.5928 20.606 32.2444 21.1893 33.5613 22.356H33.5608Z" fill="white"/>
<path d="M26.9652 29.1478C26.9067 29.1464 26.851 29.1234 26.8087 29.0832L24.9317 27.2165C24.8894 27.173 24.8658 27.1149 24.8658 27.0544C24.8658 26.9939 24.8894 26.9358 24.9317 26.8923C31.3318 20.5277 32.2053 20.8257 33.7173 22.1868C33.7426 22.2069 33.7628 22.2327 33.7764 22.2619C33.79 22.2912 33.7965 22.3232 33.7955 22.3555C33.8052 22.4187 33.7808 22.4833 33.7305 22.5242L27.1348 29.0837C27.0885 29.1258 27.0279 29.149 26.9652 29.1483V29.1478ZM25.4268 27.061L26.9652 28.5908L33.2221 22.3686C33.006 22.0994 32.6978 21.9188 32.3563 21.8614C32.0147 21.804 31.6639 21.8738 31.3709 22.0575C30.2368 22.563 28.4121 24.1055 25.4268 27.061Z" fill="#FF6C37"/>
<path d="M28.8554 30.7947L27.0565 28.967L33.6522 22.4853C35.4252 24.2095 32.7919 27.0872 28.8554 30.7943V30.7947Z" fill="white"/>
<path d="M28.8554 31.0281C28.7977 31.0235 28.743 31.0009 28.699 30.9634L26.861 29.1746C26.8335 29.1081 26.8335 29.0335 26.861 28.967C26.8415 28.9124 26.8415 28.8529 26.861 28.7983L33.4567 22.2393C33.5026 22.1964 33.5632 22.1726 33.6261 22.1726C33.689 22.1726 33.7496 22.1964 33.7955 22.2393C34.0091 22.4348 34.1778 22.6738 34.2903 22.9399C34.4027 23.2061 34.4562 23.4932 34.4471 23.7817C34.4471 25.5317 32.4395 27.7352 29.0246 30.9503C28.9789 30.9952 28.9189 31.0227 28.8549 31.0281H28.8554ZM27.3953 28.967L28.8681 30.4311C31.475 27.9812 33.9651 25.4534 33.9778 23.7423C33.992 23.3796 33.8714 23.0244 33.6391 22.7444L27.3953 28.967Z" fill="#FF6C37"/>
<path d="M25.1531 27.1004L26.4568 28.3968C26.4651 28.4041 26.4718 28.4131 26.4763 28.4232C26.4809 28.4332 26.4833 28.4441 26.4833 28.4552C26.4833 28.4662 26.4809 28.4771 26.4763 28.4872C26.4718 28.4972 26.4651 28.5062 26.4568 28.5135L23.7062 29.0968C23.6507 29.1087 23.5927 29.1023 23.5412 29.0784C23.4897 29.0546 23.4475 29.0147 23.4209 28.9647C23.3944 28.9148 23.3849 28.8576 23.3941 28.8019C23.4032 28.7461 23.4304 28.6949 23.4715 28.6559L25.0749 27.0746C25.0749 27.0746 25.1272 27.0746 25.1531 27.1004Z" fill="white"/>
<path d="M23.6411 29.3559C23.5542 29.3548 23.4691 29.3316 23.3938 29.2884C23.3184 29.2453 23.2555 29.1837 23.211 29.1094C23.1609 29.0154 23.1427 28.9078 23.1592 28.8027C23.1756 28.6975 23.2259 28.6005 23.3024 28.5261L24.8925 26.9317C24.9499 26.8807 25.0241 26.8525 25.101 26.8525C25.1779 26.8525 25.2521 26.8807 25.3095 26.9317L26.6132 28.2281C26.6904 28.3011 26.7207 28.4114 26.6914 28.5135C26.6621 28.6156 26.576 28.6967 26.47 28.721L23.7194 29.3044L23.6411 29.3559ZM25.1013 27.3857L23.6284 28.8504L26.0662 28.3317L25.1013 27.3857Z" fill="#FF6C37"/>
<path d="M37.0677 18.7131C36.1242 17.808 34.6421 17.77 33.6527 18.6241C32.6633 19.4782 32.4942 20.9443 33.2646 21.9992C34.035 23.054 35.4873 23.3496 36.6116 22.6797L34.8386 20.9166L37.0677 18.7131Z" fill="white"/>
<path d="M35.3079 23.2757C34.7659 23.2688 34.2379 23.1034 33.7897 22.8002C33.3415 22.4969 32.993 22.0693 32.7875 21.5704C32.5822 21.072 32.5283 20.5246 32.6326 19.996C32.7368 19.4674 32.9946 18.9808 33.3741 18.5964C33.896 18.087 34.5981 17.8015 35.3294 17.8015C36.0607 17.8015 36.7628 18.087 37.2847 18.5964C37.3346 18.6382 37.3629 18.7 37.3629 18.7651C37.3628 18.7971 37.3558 18.8288 37.3423 18.8579C37.3288 18.887 37.3091 18.9129 37.2847 18.9338L35.173 20.9171L36.7763 22.4858C36.8023 22.5104 36.8218 22.5411 36.8331 22.575C36.8445 22.6088 36.8473 22.645 36.8413 22.6802C36.8375 22.7142 36.8262 22.7469 36.8082 22.7761C36.7902 22.8052 36.766 22.8301 36.7372 22.8489C36.3065 23.1166 35.8113 23.2644 35.3035 23.2767L35.3079 23.2757ZM35.3079 18.2459C34.3791 18.2508 33.5481 18.8064 33.1996 19.6557C32.8511 20.5049 33.0407 21.4824 33.6918 22.1348C34.0157 22.4587 34.4304 22.6779 34.8816 22.7635C35.3328 22.8491 35.7995 22.7972 36.2205 22.6146L34.6822 21.0848C34.6577 21.0654 34.638 21.0407 34.6244 21.0126C34.6109 20.9846 34.6038 20.9538 34.6038 20.9227C34.6038 20.8916 34.6109 20.8608 34.6244 20.8327C34.638 20.8047 34.6577 20.78 34.6822 20.7606L36.7157 18.7252C36.3115 18.4172 35.8172 18.2487 35.3079 18.2455V18.2459Z" fill="#FF6C37"/>
<path d="M37.1067 18.752L34.8777 20.9555L36.6507 22.7186C36.8291 22.6167 36.9952 22.4949 37.1458 22.3555C37.6105 21.867 37.8662 21.2182 37.8589 20.5459C37.8516 19.8735 37.5819 19.2303 37.1067 18.752Z" fill="white"/>
<path d="M36.6111 22.9131C36.5818 22.9146 36.5525 22.9096 36.5255 22.8985C36.4984 22.8873 36.4742 22.8702 36.4547 22.8484L34.6817 21.0853C34.6572 21.0658 34.6375 21.0412 34.6239 21.0131C34.6104 20.9851 34.6033 20.9543 34.6033 20.9232C34.6033 20.892 34.6104 20.8613 34.6239 20.8332C34.6375 20.8052 34.6572 20.7805 34.6817 20.7611L36.8975 18.5964C36.9189 18.5643 36.948 18.538 36.9821 18.5198C37.0162 18.5016 37.0543 18.4921 37.0931 18.4921C37.1318 18.4921 37.1699 18.5016 37.204 18.5198C37.2381 18.538 37.2672 18.5643 37.2886 18.5964C37.5487 18.8499 37.7554 19.1524 37.8965 19.4863C38.0375 19.8202 38.1102 20.1787 38.1102 20.5408C38.1102 20.903 38.0375 21.2615 37.8965 21.5954C37.7554 21.9293 37.5487 22.2318 37.2886 22.4853C37.1351 22.6471 36.9596 22.7867 36.767 22.8999C36.7185 22.9242 36.6625 22.9289 36.6106 22.9131H36.6111ZM35.1774 20.9171L36.6502 22.3817C36.7515 22.3111 36.8474 22.2331 36.9371 22.1484C37.3701 21.719 37.6139 21.1363 37.6151 20.5282C37.6161 19.984 37.4167 19.4583 37.0544 19.0504L35.1774 20.9171Z" fill="#FF6C37"/>
<path d="M33.8346 22.6282C33.658 22.4633 33.4249 22.3715 33.1827 22.3715C32.9405 22.3715 32.7074 22.4633 32.5309 22.6282L26.6264 28.4868L27.604 29.4721L33.8478 24.0277C33.943 23.9369 34.0185 23.8278 34.0697 23.7069C34.1209 23.586 34.1467 23.456 34.1454 23.3249C34.1442 23.1937 34.116 23.0642 34.0625 22.9443C34.0091 22.8244 33.9315 22.7167 33.8346 22.6277V22.6282Z" fill="white"/>
<path d="M27.5517 29.7059C27.4933 29.7045 27.4375 29.6814 27.3953 29.6413L26.4045 28.6559C26.3622 28.6124 26.3386 28.5543 26.3386 28.4938C26.3386 28.4333 26.3622 28.3752 26.4045 28.3317L32.3095 22.4853C32.4795 22.3163 32.6967 22.2021 32.9329 22.1574C33.169 22.1127 33.4132 22.1396 33.6338 22.2346C33.8544 22.3296 34.0412 22.4883 34.17 22.6901C34.2988 22.892 34.3637 23.1276 34.3562 23.3666C34.3494 23.5288 34.3101 23.688 34.2407 23.8349C34.1713 23.9818 34.0731 24.1134 33.9519 24.2221L27.7082 29.6665C27.6628 29.6985 27.6069 29.7124 27.5517 29.7054V29.7059ZM26.861 28.4867L27.5126 29.1479L33.639 23.8459C33.7906 23.7146 33.881 23.527 33.8869 23.3272C33.8927 23.1274 33.8136 22.932 33.6654 22.7959C33.5287 22.6604 33.3435 22.5844 33.1505 22.5844C32.9574 22.5844 32.7723 22.6604 32.6355 22.7959L26.861 28.4867Z" fill="#FF6C37"/>
<path d="M22.051 35.1629C22.0344 35.1855 22.0254 35.2127 22.0254 35.2407C22.0254 35.2687 22.0344 35.296 22.051 35.3185L22.3116 36.4463C22.322 36.5126 22.3121 36.5806 22.2832 36.6413C22.2542 36.702 22.2076 36.7526 22.1493 36.7865C22.0912 36.8203 22.0238 36.8349 21.9569 36.8282C21.89 36.8214 21.8269 36.7938 21.7768 36.7491L19.9911 35.038L25.5573 29.459H27.4867L28.7904 30.7554C26.7568 32.5236 24.4892 34.0065 22.051 35.1629Z" fill="white"/>
<path d="M21.9337 37.0685C21.7861 37.0656 21.6404 37.0053 21.5427 36.8998L19.8352 35.2018C19.8107 35.1824 19.791 35.1577 19.7774 35.1297C19.7639 35.1016 19.7568 35.0709 19.7568 35.0397C19.7568 35.0086 19.7639 34.9778 19.7774 34.9498C19.791 34.9217 19.8107 34.8971 19.8352 34.8776L25.44 29.2908C25.4714 29.2576 25.5124 29.235 25.5574 29.2261H27.4994C27.5501 29.2083 27.6053 29.2083 27.6559 29.2261L28.9596 30.5226C28.9843 30.5453 29.0032 30.5737 29.0145 30.6053C29.0259 30.6368 29.0293 30.6707 29.0246 30.7039C29.0255 30.7361 29.0189 30.7681 29.0053 30.7973C28.9918 30.8266 28.9716 30.8524 28.9464 30.8726L28.8422 30.9635C26.8004 32.6563 24.554 34.0889 22.1552 35.2281L22.403 36.2781C22.4221 36.3591 22.4229 36.4433 22.4051 36.5246C22.3874 36.6059 22.3516 36.6823 22.3004 36.7481C22.2492 36.8139 22.1839 36.8675 22.1092 36.9051C22.0345 36.9426 21.9524 36.963 21.8687 36.965L21.9337 37.0685ZM20.3436 35.0332L21.8814 36.5756C21.8957 36.5883 21.9143 36.5953 21.9335 36.5953C21.9527 36.5953 21.9712 36.5883 21.9855 36.5756C21.9951 36.5623 22.0003 36.5464 22.0003 36.5301C22.0003 36.5138 21.9951 36.4979 21.9855 36.4847L21.725 35.3569C21.7045 35.276 21.7127 35.1905 21.7483 35.1149C21.784 35.0393 21.8448 34.9783 21.9205 34.9423C24.2549 33.8182 26.4434 32.4166 28.438 30.7681L27.3689 29.7049H25.6224L20.3436 35.0332Z" fill="#FF6C37"/>
<path d="M18.6488 36.3685L19.9525 35.072L21.9601 37.0685L18.7666 36.8482C18.7118 36.844 18.6597 36.8226 18.6178 36.7871C18.576 36.7517 18.5464 36.704 18.5334 36.6509C18.5204 36.5977 18.5246 36.5418 18.5454 36.4912C18.5662 36.4406 18.6026 36.3978 18.6493 36.3689L18.6488 36.3685Z" fill="white"/>
<path d="M21.9987 37.2629L18.818 37.0427C18.6293 37.0252 18.467 36.8969 18.4005 36.7253C18.334 36.5537 18.3746 36.35 18.5051 36.2129L19.8088 34.9165C19.8525 34.8745 19.911 34.851 19.9718 34.851C20.0326 34.851 20.0911 34.8745 20.1348 34.9165L22.1292 36.8998C22.1568 36.9374 22.1717 36.9828 22.1717 37.0294C22.1717 37.0759 22.1568 37.1213 22.1292 37.1589C22.0991 37.2074 22.0529 37.244 21.9987 37.2624V37.2629ZM18.818 36.5372L21.4248 36.7059L19.9911 35.3705L18.818 36.5372Z" fill="#FF6C37"/>
<path d="M27.669 29.6155L25.0358 30.0175L26.5609 28.514L27.669 29.6155Z" fill="white"/>
<path d="M25.0358 30.263C24.992 30.2641 24.9489 30.2524 24.9118 30.2294C24.8746 30.2063 24.8452 30.1728 24.827 30.1332C24.7993 30.0957 24.7843 30.0503 24.7843 30.0037C24.7843 29.9571 24.7993 29.9117 24.827 29.8741L26.339 28.3574C26.3848 28.3146 26.4454 28.2907 26.5083 28.2907C26.5713 28.2907 26.6318 28.3146 26.6777 28.3574L27.7863 29.459C27.8085 29.4939 27.8202 29.5344 27.8202 29.5756C27.8202 29.6169 27.8085 29.6574 27.7863 29.6923C27.7755 29.7349 27.7525 29.7734 27.7201 29.8034C27.6878 29.8333 27.6475 29.8533 27.604 29.861L24.9971 30.263H25.0358ZM26.5609 28.8499L25.7138 29.6923L27.1738 29.4721L26.5609 28.8499Z" fill="#FF6C37"/>
<path d="M27.669 29.6145L25.8311 29.8479C25.7819 29.859 25.7304 29.854 25.6843 29.8337C25.6382 29.8135 25.5998 29.7789 25.575 29.7353C25.5501 29.6916 25.5401 29.6412 25.5463 29.5914C25.5526 29.5417 25.5748 29.4952 25.6096 29.459L26.5614 28.5125L27.669 29.6145Z" fill="white"/>
<path d="M25.7788 30.0948C25.6936 30.094 25.6101 30.0708 25.5369 30.0275C25.4636 29.9842 25.4032 29.9224 25.3618 29.8484C25.312 29.7596 25.2927 29.6572 25.3069 29.5565C25.321 29.4559 25.3677 29.3626 25.44 29.2908L26.3918 28.3443C26.4376 28.3015 26.4982 28.2776 26.5611 28.2776C26.6241 28.2776 26.6847 28.3015 26.7305 28.3443L27.8387 29.4463C27.8716 29.4774 27.8948 29.5173 27.9054 29.5612C27.916 29.6051 27.9136 29.6511 27.8985 29.6936C27.8833 29.7362 27.8561 29.7735 27.82 29.8009C27.784 29.8284 27.7407 29.8449 27.6955 29.8484L25.8707 30.0817L25.7788 30.0948ZM25.7788 29.615L27.1607 29.4463L26.5482 28.8372L25.7661 29.615H25.7788ZM37.1195 20.2429C37.0949 20.202 37.0561 20.1714 37.0104 20.1571C36.9647 20.1428 36.9153 20.1456 36.8716 20.1651C36.8501 20.176 36.8309 20.191 36.8153 20.2094C36.7997 20.2278 36.7879 20.2491 36.7807 20.272C36.7662 20.3184 36.7708 20.3685 36.7934 20.4115C36.8848 20.6026 36.8594 20.8286 36.7284 20.9949C36.7121 21.0109 36.6994 21.0301 36.691 21.0513C36.6826 21.0724 36.6787 21.0951 36.6795 21.1179C36.68 21.1634 36.6974 21.2072 36.7284 21.2408C36.7619 21.254 36.7991 21.254 36.8325 21.2408C36.8629 21.2484 36.8947 21.2476 36.9246 21.2384C36.9546 21.2292 36.9814 21.2121 37.0021 21.1888C37.1095 21.0581 37.1775 20.8999 37.1982 20.7324C37.219 20.565 37.1917 20.3951 37.1195 20.2424V20.2429Z" fill="#FF6C37"/>
</svg>
