<svg width="56" height="56" viewBox="0 0 56 56" fill="none" xmlns="http://www.w3.org/2000/svg">
<path fill-rule="evenodd" clip-rule="evenodd" d="M16.2279 33.5918C15.9283 33.1104 15.9238 32.4972 16.2162 32.0112L27.2256 13.7132C27.838 12.6954 29.3166 12.7844 29.8071 13.8685L39.8647 36.0983C40.2378 36.9231 39.8083 37.8935 38.9544 38.1546L23.309 42.9369C22.6796 43.1292 22.0013 42.8714 21.6494 42.3059L16.2279 33.5918ZM28.4959 19.0634C28.6019 18.5251 29.3258 18.4474 29.5396 18.9514L36.4772 35.3081C36.6077 35.6161 36.4453 35.9713 36.1297 36.0672L25.32 39.355C24.9227 39.4758 24.542 39.1221 24.6237 38.7078L28.4959 19.0634Z" fill="#2D3748"/>
</svg>
