<svg width="56" height="56" viewBox="0 0 56 56" fill="none" xmlns="http://www.w3.org/2000/svg">
<path d="M35.3414 31.7587L36.2402 29.486H38.8353L37.6036 26.0383L39.1439 22.1432L43.5556 33.8566H40.3021L39.5482 31.7587H35.3414Z" fill="#3D3D3D"/>
<path d="M32.5659 33.8568L37.2886 22.1434H34.1576L30.9269 29.7127L28.6296 22.1434H26.2229L23.7563 29.7127L22.0166 26.2636L20.4424 31.1135L22.0408 33.8568H25.1221L27.3511 27.0686L29.4763 33.8568H32.5659Z" fill="#5A0FC8"/>
<path d="M15.4165 29.8357H17.345C17.9293 29.8357 18.4495 29.7705 18.9056 29.64L19.4045 28.1035L20.7983 23.809C20.6922 23.6406 20.5709 23.4815 20.4346 23.3315C19.7188 22.5393 18.6717 22.1432 17.2931 22.1432H12.4445V33.8566H15.4165V29.8357ZM17.9693 24.8381C18.2488 25.1194 18.3886 25.4959 18.3886 25.9676C18.3886 26.443 18.2656 26.8198 18.0199 27.0985C17.7502 27.4081 17.2541 27.5628 16.5309 27.5628H15.4165V24.416H16.5391C17.213 24.416 17.6897 24.5566 17.9693 24.8381Z" fill="#3D3D3D"/>
</svg>
