<svg width="57" height="56" viewBox="0 0 57 56" fill="none" xmlns="http://www.w3.org/2000/svg">
<path d="M28.4079 30.7428C29.9312 30.7428 31.166 29.5148 31.166 28C31.166 26.4852 29.9312 25.2572 28.4079 25.2572C26.8846 25.2572 25.6497 26.4852 25.6497 28C25.6497 29.5148 26.8846 30.7428 28.4079 30.7428Z" fill="#61DAFB"/>
<path fill-rule="evenodd" clip-rule="evenodd" d="M15.4391 26.5568C14.8136 27.1183 14.608 27.6079 14.608 28C14.608 28.3922 14.8136 28.8817 15.4391 29.4432C16.0641 30.0043 17.0251 30.5554 18.2978 31.0387C20.8362 32.0025 24.4104 32.6195 28.4079 32.6195C32.4054 32.6195 35.9795 32.0025 38.518 31.0387C39.7907 30.5554 40.7516 30.0043 41.3766 29.4432C42.0021 28.8817 42.2077 28.3922 42.2077 28C42.2077 27.6079 42.0021 27.1183 41.3766 26.5568C40.7516 25.9957 39.7907 25.4446 38.518 24.9613C35.9795 23.9975 32.4054 23.3806 28.4079 23.3806C24.4104 23.3806 20.8362 23.9975 18.2978 24.9613C17.0251 25.4446 16.0641 25.9957 15.4391 26.5568ZM17.5878 23.0916C20.4059 22.0216 24.2316 21.3806 28.4079 21.3806C32.5841 21.3806 36.4098 22.0216 39.2279 23.0916C40.6334 23.6252 41.8399 24.285 42.7127 25.0685C43.585 25.8516 44.2077 26.8404 44.2077 28C44.2077 29.1596 43.585 30.1484 42.7127 30.9315C41.8399 31.715 40.6334 32.3748 39.2279 32.9084C36.4098 33.9784 32.5841 34.6195 28.4079 34.6195C24.2316 34.6195 20.4059 33.9784 17.5878 32.9084C16.1823 32.3748 14.9758 31.715 14.1031 30.9315C13.2307 30.1484 12.608 29.1596 12.608 28C12.608 26.8404 13.2307 25.8516 14.1031 25.0685C14.9758 24.285 16.1823 23.6252 17.5878 23.0916Z" fill="#61DAFB"/>
<path fill-rule="evenodd" clip-rule="evenodd" d="M23.1884 16.1116C22.3877 15.854 21.8558 15.9205 21.51 16.119C21.1643 16.3175 20.8405 16.7423 20.6645 17.5607C20.4884 18.3792 20.4889 19.4815 20.7043 20.8183C21.1339 23.4849 22.3832 26.8702 24.3813 30.3118C26.3794 33.7535 28.7029 36.522 30.8103 38.2252C31.8669 39.0791 32.8266 39.6307 33.6273 39.8883C34.428 40.1459 34.9599 40.0795 35.3057 39.881C35.6514 39.6825 35.9752 39.2576 36.1512 38.4393C36.3273 37.6208 36.3268 36.5185 36.1114 35.1816C35.6818 32.5151 34.4325 29.1298 32.4344 25.6882C30.4363 22.2465 28.1128 19.478 26.0054 17.7748C24.9489 16.9209 23.9891 16.3693 23.1884 16.1116ZM27.2661 16.2263C29.6081 18.1192 32.0801 21.0947 34.1689 24.6924C36.2576 28.29 37.6128 31.9067 38.0902 34.8701C38.3284 36.3483 38.357 37.718 38.111 38.8618C37.865 40.0056 37.3155 41.0333 36.3099 41.6106C35.3042 42.188 34.1346 42.1474 33.0154 41.7874C31.8963 41.4273 30.7178 40.7178 29.5496 39.7737C27.2076 37.8807 24.7356 34.9053 22.6468 31.3076C20.5581 27.71 19.2029 24.0933 18.7255 21.1299C18.4873 19.6517 18.4587 18.282 18.7047 17.1382C18.9507 15.9943 19.5002 14.9667 20.5058 14.3893C21.5115 13.812 22.6811 13.8526 23.8003 14.2126C24.9194 14.5726 26.0979 15.2822 27.2661 16.2263Z" fill="#61DAFB"/>
<path fill-rule="evenodd" clip-rule="evenodd" d="M36.1512 17.5607C35.9752 16.7423 35.6514 16.3175 35.3057 16.119C34.9599 15.9205 34.428 15.854 33.6273 16.1116C32.8266 16.3693 31.8669 16.9209 30.8103 17.7748C28.7029 19.478 26.3794 22.2465 24.3813 25.6882C22.3832 29.1298 21.1339 32.5151 20.7043 35.1816C20.4889 36.5185 20.4884 37.6208 20.6645 38.4393C20.8405 39.2576 21.1643 39.6825 21.51 39.881C21.8558 40.0795 22.3877 40.1459 23.1884 39.8883C23.9891 39.6307 24.9488 39.0791 26.0054 38.2252C28.1128 36.522 30.4363 33.7535 32.4344 30.3118C34.4325 26.8702 35.6818 23.4849 36.1114 20.8183C36.3268 19.4815 36.3273 18.3792 36.1512 17.5607ZM38.0902 21.1299C37.6128 24.0933 36.2576 27.71 34.1689 31.3076C32.0801 34.9053 29.6081 37.8807 27.2661 39.7737C26.0979 40.7178 24.9194 41.4273 23.8003 41.7874C22.6811 42.1474 21.5115 42.188 20.5058 41.6106C19.5002 41.0333 18.9507 40.0056 18.7047 38.8618C18.4587 37.718 18.4873 36.3483 18.7255 34.8701C19.2029 31.9067 20.5581 28.29 22.6468 24.6924C24.7356 21.0947 27.2076 18.1192 29.5496 16.2263C30.7178 15.2822 31.8963 14.5726 33.0154 14.2126C34.1346 13.8526 35.3042 13.812 36.3099 14.3894C37.3155 14.9667 37.865 15.9943 38.111 17.1382C38.357 18.282 38.3284 19.6517 38.0902 21.1299Z" fill="#61DAFB"/>
</svg>
