<svg width="56" height="56" viewBox="0 0 56 56" fill="none" xmlns="http://www.w3.org/2000/svg">
<path d="M28 18.6692C23.8517 18.6692 21.2592 20.7428 20.222 24.8895C21.7778 22.8159 23.5926 22.0386 25.6666 22.5568C26.85 22.8525 27.6958 23.7111 28.6322 24.6611C30.1572 26.2087 31.9223 27.9998 35.778 27.9998C39.9259 27.9998 42.5188 25.9262 43.5556 21.7791C42.0002 23.8527 40.1854 24.6304 38.111 24.1122C36.928 23.8165 36.0822 22.9579 35.1458 22.0079C33.6208 20.4603 31.8553 18.6692 28 18.6692ZM20.222 27.9998C16.0742 27.9998 13.4812 30.0734 12.4445 34.2205C13.9998 32.1469 15.8147 31.3692 17.889 31.8878C19.0721 32.1839 19.9178 33.0421 20.8542 33.9917C22.3792 35.5393 24.1447 37.3308 28 37.3308C32.1483 37.3308 34.7408 35.2572 35.778 31.1101C34.2222 33.1837 32.4074 33.9614 30.3334 33.4428C29.15 33.1475 28.3042 32.2885 27.3678 31.3389C25.8428 29.7913 24.0778 27.9998 20.222 27.9998Z" fill="#06B6D4"/>
</svg>
