<svg width="56" height="56" viewBox="0 0 56 56" fill="none" xmlns="http://www.w3.org/2000/svg">
<path d="M12.4445 12.4444H43.5556V43.5556H12.4445V12.4444Z" fill="#017ACB"/>
<path d="M27.3827 23.9653H28.875V26.5417H24.8403V38.0042L24.7334 38.0333C24.5875 38.0722 22.6674 38.0722 22.2542 38.0285L21.9236 37.9993V26.5417H17.8889V23.9653L19.1674 23.9507C19.8674 23.941 21.666 23.941 23.1632 23.9507C24.6605 23.9604 26.5563 23.9653 27.3827 23.9653ZM38.7723 36.7889C38.1792 37.416 37.5424 37.766 36.4827 38.0528C36.0209 38.1792 35.9431 38.184 34.9028 38.1792C33.8626 38.1743 33.7799 38.1743 33.2744 38.0431C31.9667 37.7076 30.9119 37.0514 30.1924 36.1229C29.9882 35.8604 29.6528 35.316 29.6528 35.2479C29.6528 35.2285 29.7014 35.1847 29.7646 35.1556C29.8278 35.1264 29.9591 35.0437 30.066 34.9806C30.173 34.9174 30.3674 34.8007 30.4987 34.7326C30.6299 34.6646 31.0091 34.441 31.3396 34.2417C31.6702 34.0424 31.9716 33.8819 32.0056 33.8819C32.0396 33.8819 32.1028 33.95 32.1514 34.0326C32.4431 34.5236 33.1237 35.1507 33.6049 35.3646C33.9014 35.491 34.5577 35.6319 34.8737 35.6319C35.1653 35.6319 35.7001 35.5056 35.9869 35.3743C36.2931 35.2333 36.4487 35.0924 36.6334 34.8104C36.7598 34.6111 36.7744 34.5576 36.7695 34.1785C36.7695 33.8285 36.7501 33.7312 36.6528 33.5708C36.3806 33.1236 36.0112 32.8903 34.5139 32.2292C32.9681 31.5437 32.273 31.1354 31.7091 30.5861C31.291 30.1778 31.2084 30.066 30.9459 29.5556C30.6056 28.8993 30.5619 28.6854 30.557 27.7083C30.5521 27.0229 30.5667 26.7993 30.6396 26.566C30.7417 26.216 31.0723 25.5403 31.223 25.3701C31.5341 25.0056 31.6459 24.8937 31.8646 24.7139C32.5257 24.1694 33.5563 23.8097 34.5431 23.7757C34.6549 23.7757 35.0244 23.7951 35.3695 23.8194C36.3612 23.9021 37.0369 24.1451 37.6883 24.6653C38.1792 25.0542 38.923 25.9681 38.8501 26.0896C38.8015 26.1625 36.8619 27.4556 36.7355 27.4944C36.6577 27.5187 36.6042 27.4896 36.4973 27.3632C35.8362 26.5708 35.5688 26.4007 34.9271 26.3618C34.4702 26.3326 34.2271 26.3861 33.9209 26.5903C33.6001 26.8042 33.4445 27.1299 33.4445 27.5819C33.4494 28.2431 33.7021 28.5542 34.6355 29.016C35.2383 29.3125 35.7535 29.5556 35.7924 29.5556C35.8508 29.5556 37.1001 30.1778 37.4258 30.3722C38.9424 31.2618 39.5598 32.1757 39.7202 33.7507C39.8369 34.9368 39.5015 36.0208 38.7723 36.7889Z" fill="white"/>
</svg>
