<svg width="56" height="56" viewBox="0 0 56 56" fill="none" xmlns="http://www.w3.org/2000/svg">
<path d="M12.7405 23.3436C12.7405 23.3436 11.9827 22.7974 12.892 22.0681L15.0105 20.1737C15.0105 20.1737 15.6167 19.536 16.2577 20.0916L35.8076 34.893V41.9906C35.8076 41.9906 35.7982 43.1052 34.3679 42.982L12.7405 23.3436Z" fill="#2489CA"/>
<path d="M17.7795 27.9187L12.7404 32.4999C12.7404 32.4999 12.2227 32.8851 12.7404 33.5734L15.08 35.7014C15.08 35.7014 15.6357 36.2981 16.4566 35.6193L21.7987 31.5685L17.7795 27.9187Z" fill="#1070B3"/>
<path d="M26.6263 27.9565L35.8677 20.9L35.8077 13.8402C35.8077 13.8402 35.413 12.2995 34.0964 13.1014L21.7988 24.2941L26.6263 27.9565Z" fill="#0877B9"/>
<path d="M34.368 42.9915C34.9047 43.5409 35.5551 43.361 35.5551 43.361L42.7569 39.8121C43.6788 39.1838 43.5494 38.404 43.5494 38.404V17.2122C43.5494 16.2808 42.5959 15.9588 42.5959 15.9588L36.3539 12.9499C34.9899 12.1069 34.0964 13.1014 34.0964 13.1014C34.0964 13.1014 35.2457 12.2742 35.8077 13.8402V41.8612C35.8077 42.0538 35.7666 42.2433 35.6846 42.4138C35.5204 42.7453 35.1636 43.0547 34.308 42.9252L34.368 42.9915Z" fill="#3C99D4"/>
</svg>
