<svg width="56" height="56" viewBox="0 0 56 56" fill="none" xmlns="http://www.w3.org/2000/svg">
<path d="M14.6557 27.9996C14.6557 33.2819 17.7253 37.8464 22.1766 40.0098L15.811 22.5688C15.048 24.2775 14.6543 26.1282 14.6557 27.9996ZM37.0088 27.3262C37.0088 25.677 36.4164 24.5349 35.9083 23.6459C35.2319 22.5467 34.5981 21.6158 34.5981 20.5166C34.5981 19.2899 35.5282 18.148 36.8387 18.148C36.8979 18.148 36.954 18.1554 37.0119 18.1587C34.6375 15.9836 31.4744 14.6556 28.0002 14.6556C23.3383 14.6556 19.2367 17.0475 16.8506 20.6705C17.1637 20.6798 17.459 20.6862 17.7094 20.6862C19.1052 20.6862 21.2658 20.5168 21.2658 20.5168C21.9851 20.4744 22.0699 21.531 21.3516 21.6161C21.3516 21.6161 20.6284 21.7011 19.824 21.7433L24.6835 36.1977L27.6041 27.4392L25.5248 21.743C24.8062 21.7009 24.1254 21.6158 24.1254 21.6158C23.4063 21.5736 23.4906 20.4742 24.2097 20.5166C24.2097 20.5166 26.4135 20.6859 27.7247 20.6859C29.1203 20.6859 31.2811 20.5166 31.2811 20.5166C32.001 20.4742 32.0856 21.5307 31.3667 21.6158C31.3667 21.6158 30.6423 21.7009 29.8394 21.743L34.6618 36.088L35.9926 31.6401C36.5698 29.7943 37.0088 28.4686 37.0088 27.3262Z" fill="#00749A"/>
<path d="M28.2344 29.1669L24.2305 40.801C25.4546 41.1617 26.7241 41.3449 28.0002 41.3449C29.5542 41.3449 31.0445 41.076 32.4317 40.5885C32.3945 40.5302 32.3627 40.4687 32.3367 40.4046L28.2344 29.1669ZM39.7095 21.5973C39.7669 22.0223 39.7994 22.4789 39.7994 22.9695C39.7994 24.3236 39.5465 25.8459 38.7848 27.7492L34.7086 39.5345C38.6758 37.221 41.3443 32.9229 41.3443 27.9996C41.3478 25.7618 40.7855 23.5594 39.7095 21.5973Z" fill="#00749A"/>
<path d="M28.0003 12.4444C19.4231 12.4444 12.4445 19.4224 12.4445 27.9996C12.4445 36.5778 19.4228 43.5558 28.0003 43.5558C36.5772 43.5558 43.5567 36.5781 43.5567 27.9996C43.5565 19.4224 36.5772 12.4444 28.0003 12.4444ZM28.0003 42.8425C19.8164 42.8425 13.1578 36.184 13.1578 27.9996C13.1578 19.816 19.8161 13.158 28.0003 13.158C36.1839 13.158 42.8419 19.816 42.8419 27.9996C42.8419 36.184 36.1836 42.8425 28.0003 42.8425Z" fill="#00749A"/>
</svg>
